<svg class="svg-arrow  svg-arrow--left" xmlns="http://www.w3.org/2000/svg" xmlns:xlink="http://www.w3.org/1999/xlink" preserveAspectRatio="xMidYMid" width="42" height="16" viewBox="0 0 42 16">
  <path d="M41.124,9.031 C41.124,9.031 3.164,9.031 3.164,9.031 C3.164,9.031 8.725,14.607 8.725,14.607 C8.725,14.607 7.297,16.039 7.297,16.039 C7.297,16.039 0.012,8.734 0.012,8.734 C0.012,8.734 0.726,8.018 0.726,8.018 C0.726,8.018 0.012,7.302 0.012,7.302 C0.012,7.302 7.297,-0.004 7.297,-0.004 C7.297,-0.004 8.725,1.429 8.725,1.429 C8.725,1.429 3.164,7.005 3.164,7.005 C3.164,7.005 41.124,7.005 41.124,7.005 C41.124,7.005 41.124,9.031 41.124,9.031 Z" id="path-1" class="cls-2" fill-rule="evenodd"/>
</svg>
